<svg xmlns="http://www.w3.org/2000/svg" xmlns:xlink="http://www.w3.org/1999/xlink" width="360" zoomAndPan="magnify" viewBox="0 0 270 135.000003" height="180" preserveAspectRatio="xMidYMid meet" version="1.0"><defs><g/><clipPath id="49099bdcef"><path d="M 5 62 L 93 62 L 93 113.769531 L 5 113.769531 Z M 5 62 " clip-rule="nonzero"/></clipPath><clipPath id="4bf7dcc3a3"><path d="M 9 49.367188 L 33 49.367188 L 33 60.503906 L 9 60.503906 Z M 9 49.367188 " clip-rule="nonzero"/></clipPath><clipPath id="afba15f23e"><path d="M 33 49.367188 L 57 49.367188 L 57 60.503906 L 33 60.503906 Z M 33 49.367188 " clip-rule="nonzero"/></clipPath><clipPath id="459fe5b12f"><path d="M 57 49.367188 L 81 49.367188 L 81 60.503906 L 57 60.503906 Z M 57 49.367188 " clip-rule="nonzero"/></clipPath><clipPath id="9851fc6274"><path d="M 81 49.367188 L 93.917969 49.367188 L 93.917969 60.503906 L 81 60.503906 Z M 81 49.367188 " clip-rule="nonzero"/></clipPath><clipPath id="73ad01f5ff"><path d="M 7 31 L 33 31 L 33 49.382812 L 7 49.382812 Z M 7 31 " clip-rule="nonzero"/></clipPath><clipPath id="e4179d2808"><path d="M 1.96875 38.335938 L 91.773438 25.9375 L 93.296875 36.96875 L 3.492188 49.371094 Z M 1.96875 38.335938 " clip-rule="nonzero"/></clipPath><clipPath id="22c71d2b51"><path d="M 31 29 L 57 29 L 57 48 L 31 48 Z M 31 29 " clip-rule="nonzero"/></clipPath><clipPath id="fb1b5d877c"><path d="M 1.96875 38.335938 L 91.773438 25.9375 L 93.296875 36.96875 L 3.492188 49.371094 Z M 1.96875 38.335938 " clip-rule="nonzero"/></clipPath><clipPath id="53024d3d7e"><path d="M 54 25.917969 L 80 25.917969 L 80 45 L 54 45 Z M 54 25.917969 " clip-rule="nonzero"/></clipPath><clipPath id="0f4448e3bc"><path d="M 1.96875 38.335938 L 91.773438 25.9375 L 93.296875 36.96875 L 3.492188 49.371094 Z M 1.96875 38.335938 " clip-rule="nonzero"/></clipPath><clipPath id="872fd16cdb"><path d="M 78 25.917969 L 93.300781 25.917969 L 93.300781 42 L 78 42 Z M 78 25.917969 " clip-rule="nonzero"/></clipPath><clipPath id="f0bcbfb00b"><path d="M 1.96875 38.335938 L 91.773438 25.9375 L 93.296875 36.96875 L 3.492188 49.371094 Z M 1.96875 38.335938 " clip-rule="nonzero"/></clipPath><clipPath id="ed92d96224"><path d="M 1.601562 37 L 18 37 L 18 50 L 1.601562 50 Z M 1.601562 37 " clip-rule="nonzero"/></clipPath><clipPath id="723068f9d4"><path d="M 1.601562 37 L 22 37 L 22 61 L 1.601562 61 Z M 1.601562 37 " clip-rule="nonzero"/></clipPath></defs><g clip-path="url(#49099bdcef)"><path fill="#1a1a1a" d="M 89.816406 113.636719 L 7.851562 113.636719 C 6.550781 113.636719 5.496094 112.582031 5.496094 111.28125 L 5.496094 62.820312 L 92.1875 62.820312 L 92.1875 111.28125 C 92.171875 112.582031 91.117188 113.636719 89.816406 113.636719 Z M 89.816406 113.636719 " fill-opacity="1" fill-rule="nonzero"/></g><path fill="#6046ff" d="M 89.816406 111.339844 L 7.851562 111.339844 C 6.550781 111.339844 5.496094 110.285156 5.496094 108.980469 L 5.496094 60.519531 L 92.1875 60.519531 L 92.1875 108.980469 C 92.171875 110.285156 91.117188 111.339844 89.816406 111.339844 Z M 89.816406 111.339844 " fill-opacity="1" fill-rule="nonzero"/><path fill="#1a1a1a" d="M 5.480469 60.519531 L 92.171875 60.519531 L 92.171875 62.820312 L 5.480469 62.820312 Z M 5.480469 60.519531 " fill-opacity="1" fill-rule="nonzero"/><path stroke-linecap="butt" transform="matrix(0.146364, 0, 0, 0.146364, -93.314499, -11.944209)" fill="none" stroke-linejoin="miter" d="M 724.903794 571.689806 L 1213.305897 571.689806 " stroke="#ffffff" stroke-width="6.672" stroke-opacity="1" stroke-miterlimit="10"/><path stroke-linecap="butt" transform="matrix(0.146364, 0, 0, 0.146364, -93.314499, -11.944209)" fill="none" stroke-linejoin="miter" d="M 724.903794 673.907296 L 1213.305897 673.907296 " stroke="#ffffff" stroke-width="6.672" stroke-opacity="1" stroke-miterlimit="10"/><path stroke-linecap="butt" transform="matrix(0.146364, 0, 0, 0.146364, -93.314499, -11.944209)" fill="none" stroke-linejoin="miter" d="M 1056.189876 571.689806 L 1056.189876 673.907296 " stroke="#ffffff" stroke-width="6.672" stroke-opacity="1" stroke-miterlimit="10"/><path stroke-linecap="butt" transform="matrix(0.146364, 0, 0, 0.146364, -93.314499, -11.944209)" fill="none" stroke-linejoin="miter" d="M 728.987155 729.099402 L 1217.389259 729.099402 " stroke="#ffffff" stroke-width="6.672" stroke-opacity="1" stroke-miterlimit="10"/><path stroke-linecap="butt" transform="matrix(0.146364, 0, 0, 0.146364, -93.314499, -11.944209)" fill="none" stroke-linejoin="miter" d="M 724.903794 789.202218 L 1213.305897 789.202218 " stroke="#ffffff" stroke-width="6.672" stroke-opacity="1" stroke-miterlimit="10"/><path stroke-linecap="butt" transform="matrix(0.146364, 0, 0, 0.146364, -93.314499, -11.944209)" fill="none" stroke-linejoin="miter" d="M 872.999054 571.689806 L 872.999054 673.907296 " stroke="#ffffff" stroke-width="6.672" stroke-opacity="1" stroke-miterlimit="10"/><g clip-path="url(#4bf7dcc3a3)"><path fill="#ffffff" d="M 32.382812 45.488281 L 19.75 45.488281 L 9.519531 66.769531 L 22.167969 63.84375 Z M 32.382812 45.488281 " fill-opacity="1" fill-rule="nonzero"/></g><g clip-path="url(#afba15f23e)"><path fill="#ffffff" d="M 56.285156 45.488281 L 43.652344 45.488281 L 33.421875 63.84375 L 46.066406 63.84375 Z M 56.285156 45.488281 " fill-opacity="1" fill-rule="nonzero"/></g><g clip-path="url(#459fe5b12f)"><path fill="#ffffff" d="M 80.183594 45.488281 L 67.554688 45.488281 L 57.324219 63.84375 L 69.96875 63.84375 Z M 80.183594 45.488281 " fill-opacity="1" fill-rule="nonzero"/></g><g clip-path="url(#9851fc6274)"><path fill="#ffffff" d="M 104.085938 45.488281 L 91.457031 45.488281 L 81.222656 63.84375 L 93.871094 63.84375 Z M 104.085938 45.488281 " fill-opacity="1" fill-rule="nonzero"/></g><path fill="#6046ff" d="M 24.011719 60.503906 L 35.28125 60.503906 L 41.488281 49.382812 L 30.214844 49.382812 Z M 24.011719 60.503906 " fill-opacity="1" fill-rule="nonzero"/><path fill="#6046ff" d="M 65.386719 49.382812 L 54.117188 49.382812 L 47.910156 60.503906 L 59.183594 60.503906 Z M 65.386719 49.382812 " fill-opacity="1" fill-rule="nonzero"/><path fill="#6046ff" d="M 89.289062 49.382812 L 78.019531 49.382812 L 71.8125 60.503906 L 83.082031 60.503906 Z M 89.289062 49.382812 " fill-opacity="1" fill-rule="nonzero"/><path fill="#6046ff" d="M 17.878906 49.382812 L 3.433594 49.382812 L 3.433594 60.503906 L 12.535156 60.503906 Z M 17.878906 49.382812 " fill-opacity="1" fill-rule="nonzero"/><g clip-path="url(#73ad01f5ff)"><g clip-path="url(#e4179d2808)"><path fill="#ffffff" d="M 32.644531 49.28125 L 20.132812 51.007812 L 7.089844 31.304688 L 20 32.492188 Z M 32.644531 49.28125 " fill-opacity="1" fill-rule="nonzero"/></g></g><g clip-path="url(#22c71d2b51)"><g clip-path="url(#fb1b5d877c)"><path fill="#ffffff" d="M 56.3125 46 L 43.800781 47.726562 L 31.167969 30.941406 L 43.683594 29.214844 Z M 56.3125 46 " fill-opacity="1" fill-rule="nonzero"/></g></g><g clip-path="url(#53024d3d7e)"><g clip-path="url(#0f4448e3bc)"><path fill="#ffffff" d="M 79.996094 42.738281 L 67.480469 44.464844 L 54.847656 27.675781 L 67.363281 25.949219 Z M 79.996094 42.738281 " fill-opacity="1" fill-rule="nonzero"/></g></g><g clip-path="url(#872fd16cdb)"><g clip-path="url(#f0bcbfb00b)"><path fill="#ffffff" d="M 103.675781 39.457031 L 91.164062 41.199219 L 78.515625 24.414062 L 91.03125 22.683594 Z M 103.675781 39.457031 " fill-opacity="1" fill-rule="nonzero"/></g></g><g clip-path="url(#ed92d96224)"><path fill="#6046ff" d="M 10.925781 37.101562 L 1.96875 38.332031 L 3.503906 49.367188 L 17.746094 47.40625 Z M 10.925781 37.101562 " fill-opacity="1" fill-rule="nonzero"/></g><path fill="#6046ff" d="M 57.132812 30.722656 L 45.964844 32.257812 L 53.648438 42.445312 L 64.800781 40.90625 Z M 57.132812 30.722656 " fill-opacity="1" fill-rule="nonzero"/><path fill="#6046ff" d="M 29.96875 45.722656 L 41.121094 44.171875 L 33.449219 33.984375 L 22.296875 35.523438 Z M 29.96875 45.722656 " fill-opacity="1" fill-rule="nonzero"/><path fill="#6046ff" d="M 80.816406 27.441406 L 69.648438 28.992188 L 77.316406 39.179688 L 88.484375 37.644531 Z M 80.816406 27.441406 " fill-opacity="1" fill-rule="nonzero"/><g clip-path="url(#723068f9d4)"><path fill="#1a1a1a" d="M 10.03125 37.660156 L 3.082031 37.660156 C 2.261719 37.660156 1.601562 38.316406 1.601562 39.136719 L 1.601562 59.042969 C 1.601562 59.863281 2.261719 60.519531 3.082031 60.519531 L 19.632812 60.519531 C 20.71875 60.519531 21.433594 59.378906 20.964844 58.414062 L 11.363281 38.507812 C 11.117188 37.980469 10.605469 37.660156 10.03125 37.660156 Z M 10.03125 37.660156 " fill-opacity="1" fill-rule="nonzero"/></g><path fill="#ffffff" d="M 6.34375 56.453125 C 6.34375 56.609375 6.3125 56.765625 6.253906 56.910156 C 6.191406 57.058594 6.105469 57.1875 5.992188 57.300781 C 5.878906 57.414062 5.75 57.5 5.605469 57.558594 C 5.457031 57.621094 5.304688 57.652344 5.144531 57.652344 C 4.984375 57.652344 4.832031 57.621094 4.683594 57.558594 C 4.539062 57.5 4.410156 57.414062 4.296875 57.300781 C 4.183594 57.1875 4.097656 57.058594 4.035156 56.910156 C 3.976562 56.765625 3.945312 56.609375 3.945312 56.453125 C 3.945312 56.292969 3.976562 56.140625 4.035156 55.992188 C 4.097656 55.84375 4.183594 55.714844 4.296875 55.601562 C 4.410156 55.492188 4.539062 55.402344 4.683594 55.34375 C 4.832031 55.28125 4.984375 55.25 5.144531 55.25 C 5.304688 55.25 5.457031 55.28125 5.605469 55.34375 C 5.75 55.402344 5.878906 55.492188 5.992188 55.601562 C 6.105469 55.714844 6.191406 55.84375 6.253906 55.992188 C 6.3125 56.140625 6.34375 56.292969 6.34375 56.453125 Z M 6.34375 56.453125 " fill-opacity="1" fill-rule="nonzero"/><path fill="#ffffff" d="M 15.988281 56.453125 C 15.988281 56.609375 15.960938 56.765625 15.898438 56.910156 C 15.835938 57.058594 15.75 57.1875 15.636719 57.300781 C 15.527344 57.414062 15.394531 57.5 15.25 57.558594 C 15.101562 57.621094 14.949219 57.652344 14.789062 57.652344 C 14.628906 57.652344 14.476562 57.621094 14.332031 57.558594 C 14.183594 57.5 14.054688 57.414062 13.941406 57.300781 C 13.828125 57.1875 13.742188 57.058594 13.679688 56.910156 C 13.621094 56.765625 13.589844 56.609375 13.589844 56.453125 C 13.589844 56.292969 13.621094 56.140625 13.679688 55.992188 C 13.742188 55.84375 13.828125 55.714844 13.941406 55.601562 C 14.054688 55.492188 14.183594 55.402344 14.332031 55.34375 C 14.476562 55.28125 14.628906 55.25 14.789062 55.25 C 14.949219 55.25 15.101562 55.28125 15.25 55.34375 C 15.394531 55.402344 15.527344 55.492188 15.636719 55.601562 C 15.75 55.714844 15.835938 55.84375 15.898438 55.992188 C 15.960938 56.140625 15.988281 56.292969 15.988281 56.453125 Z M 15.988281 56.453125 " fill-opacity="1" fill-rule="nonzero"/><path fill="#ffffff" d="M 6.34375 41.609375 C 6.34375 41.769531 6.3125 41.921875 6.253906 42.070312 C 6.191406 42.214844 6.105469 42.347656 5.992188 42.457031 C 5.878906 42.570312 5.75 42.660156 5.605469 42.71875 C 5.457031 42.78125 5.304688 42.808594 5.144531 42.808594 C 4.984375 42.808594 4.832031 42.78125 4.683594 42.71875 C 4.539062 42.660156 4.410156 42.570312 4.296875 42.457031 C 4.183594 42.347656 4.097656 42.214844 4.035156 42.070312 C 3.976562 41.921875 3.945312 41.769531 3.945312 41.609375 C 3.945312 41.449219 3.976562 41.296875 4.035156 41.152344 C 4.097656 41.003906 4.183594 40.875 4.296875 40.761719 C 4.410156 40.648438 4.539062 40.5625 4.683594 40.5 C 4.832031 40.441406 4.984375 40.410156 5.144531 40.410156 C 5.304688 40.410156 5.457031 40.441406 5.605469 40.5 C 5.75 40.5625 5.878906 40.648438 5.992188 40.761719 C 6.105469 40.875 6.191406 41.003906 6.253906 41.152344 C 6.3125 41.296875 6.34375 41.449219 6.34375 41.609375 Z M 6.34375 41.609375 " fill-opacity="1" fill-rule="nonzero"/><g fill="#ffffff" fill-opacity="1"><g transform="translate(104.595935, 78.799062)"><g><path d="M 2.09375 -22.734375 L 2.09375 -25.09375 C 2.09375 -29.988281 3.039062 -34.191406 4.9375 -37.703125 C 6.84375 -41.222656 9.550781 -43.929688 13.0625 -45.828125 C 16.582031 -47.722656 20.765625 -48.671875 25.609375 -48.671875 C 32.472656 -48.671875 37.878906 -46.898438 41.828125 -43.359375 C 45.785156 -39.828125 48.046875 -34.875 48.609375 -28.5 L 37.34375 -28.5 C 36.207031 -35.613281 32.253906 -39.171875 25.484375 -39.171875 C 21.773438 -39.171875 18.796875 -37.957031 16.546875 -35.53125 C 14.296875 -33.113281 13.171875 -29.566406 13.171875 -24.890625 L 13.171875 -22.9375 C 13.171875 -18.257812 14.296875 -14.707031 16.546875 -12.28125 C 18.796875 -9.851562 21.773438 -8.640625 25.484375 -8.640625 C 32.335938 -8.640625 36.289062 -12.203125 37.34375 -19.328125 L 48.609375 -19.328125 C 48.046875 -12.992188 45.785156 -8.046875 41.828125 -4.484375 C 37.878906 -0.921875 32.472656 0.859375 25.609375 0.859375 C 20.765625 0.859375 16.582031 -0.0859375 13.0625 -1.984375 C 9.550781 -3.890625 6.84375 -6.613281 4.9375 -10.15625 C 3.039062 -13.695312 2.09375 -17.890625 2.09375 -22.734375 Z M 2.09375 -22.734375 "/></g></g></g><g fill="#ffffff" fill-opacity="1"><g transform="translate(155.165589, 78.799062)"><g><path d="M 15.390625 -47.828125 L 15.390625 0 L 4.453125 0 L 4.453125 -47.828125 Z M 15.390625 -47.828125 "/></g></g></g><g fill="#ffffff" fill-opacity="1"><g transform="translate(175.013521, 78.799062)"><g><path d="M 37.46875 -17.8125 L 37.46875 -47.828125 L 47.6875 -47.828125 L 47.6875 0 L 38.328125 0 L 14.609375 -32.296875 L 14.609375 0 L 4.390625 0 L 4.390625 -47.828125 L 15.984375 -47.828125 Z M 37.46875 -17.8125 "/></g></g></g><g fill="#ffffff" fill-opacity="1"><g transform="translate(227.08979, 78.799062)"><g><path d="M 41.609375 0 L 4.390625 0 L 4.390625 -47.828125 L 40.484375 -47.828125 L 40.484375 -38.515625 L 15.203125 -38.515625 L 15.203125 -28.828125 L 38.125 -28.828125 L 38.125 -19.59375 L 15.203125 -19.59375 L 15.203125 -9.375 L 41.609375 -9.375 Z M 41.609375 0 "/></g></g></g><g fill="#ffffff" fill-opacity="1"><g transform="translate(131.27948, 110.244083)"><g><path d="M 10.734375 -15.296875 L 12.359375 -15.296875 L 7.078125 0 L 5.390625 0 L 0.109375 -15.296875 L 1.71875 -15.296875 L 6.234375 -2.21875 Z M 10.734375 -15.296875 "/></g></g></g><g fill="#ffffff" fill-opacity="1"><g transform="translate(155.971234, 110.244083)"><g><path d="M 3.171875 -7.375 L 3.171875 -1.53125 L 12.25 -1.53125 L 12.25 0 L 1.640625 0 L 1.640625 -15.296875 L 12.046875 -15.296875 L 12.046875 -13.765625 L 3.171875 -13.765625 L 3.171875 -8.90625 L 11.734375 -8.90625 L 11.734375 -7.375 Z M 3.171875 -7.375 "/></g></g></g><g fill="#ffffff" fill-opacity="1"><g transform="translate(181.234252, 110.244083)"><g><path d="M 3.171875 -8.46875 L 7.09375 -8.46875 C 8.269531 -8.46875 9.148438 -8.6875 9.734375 -9.125 C 10.328125 -9.570312 10.625 -10.238281 10.625 -11.125 C 10.625 -12 10.328125 -12.660156 9.734375 -13.109375 C 9.148438 -13.546875 8.269531 -13.765625 7.09375 -13.765625 L 3.171875 -13.765625 Z M 10.96875 0 L 7.625 -6.953125 C 7.445312 -6.941406 7.269531 -6.9375 7.09375 -6.9375 L 3.171875 -6.9375 L 3.171875 0 L 1.640625 0 L 1.640625 -15.296875 L 7.09375 -15.296875 C 8.78125 -15.296875 10.046875 -14.953125 10.890625 -14.265625 C 11.734375 -13.554688 12.15625 -12.507812 12.15625 -11.125 C 12.15625 -10.0625 11.910156 -9.195312 11.421875 -8.53125 C 10.929688 -7.875 10.195312 -7.421875 9.21875 -7.171875 L 12.671875 0 Z M 10.96875 0 "/></g></g></g><g fill="#ffffff" fill-opacity="1"><g transform="translate(206.232041, 110.244083)"><g><path d="M 6.265625 -15.296875 C 9.660156 -15.296875 11.359375 -13.9375 11.359375 -11.21875 L 9.828125 -11.21875 C 9.828125 -12.914062 8.640625 -13.765625 6.265625 -13.765625 C 3.898438 -13.765625 2.71875 -13.078125 2.71875 -11.703125 C 2.71875 -10.316406 3.546875 -9.445312 5.203125 -9.09375 L 7.6875 -8.5625 C 10.332031 -8 11.65625 -6.5 11.65625 -4.0625 C 11.65625 -1.351562 9.859375 0 6.265625 0 C 2.679688 0 0.890625 -1.695312 0.890625 -5.09375 L 2.421875 -5.09375 C 2.421875 -2.71875 3.703125 -1.53125 6.265625 -1.53125 C 8.835938 -1.53125 10.125 -2.375 10.125 -4.0625 C 10.125 -5.769531 9.195312 -6.820312 7.34375 -7.21875 L 4.859375 -7.765625 C 2.410156 -8.253906 1.1875 -9.566406 1.1875 -11.703125 C 1.1875 -14.097656 2.878906 -15.296875 6.265625 -15.296875 Z M 6.265625 -15.296875 "/></g></g></g><g fill="#ffffff" fill-opacity="1"><g transform="translate(230.740175, 110.244083)"><g><path d="M 3.171875 -7.375 L 3.171875 -1.53125 L 12.25 -1.53125 L 12.25 0 L 1.640625 0 L 1.640625 -15.296875 L 12.046875 -15.296875 L 12.046875 -13.765625 L 3.171875 -13.765625 L 3.171875 -8.90625 L 11.734375 -8.90625 L 11.734375 -7.375 Z M 3.171875 -7.375 "/></g></g></g></svg>